<svg width="21" height="18" viewBox="0 0 21 18" fill="none" xmlns="http://www.w3.org/2000/svg">
<path fill-rule="evenodd" clip-rule="evenodd" d="M15.391 0.550021C16.1366 0.7573 16.8276 1.12601 17.415 1.63002C18.027 3.23002 18.544 4.87702 19.156 6.47702H19.862C20.403 6.85302 21.439 8.35902 20.521 8.64202H19.415C19.486 8.90102 19.58 9.13602 19.674 9.39502C19.65 11.725 19.65 14.031 19.65 16.36C19.6497 16.5408 19.5778 16.7141 19.4499 16.842C19.3221 16.9698 19.1488 17.0418 18.968 17.042H16.05C15.8692 17.0418 15.6958 16.9698 15.568 16.842C15.4402 16.7141 15.3682 16.5408 15.368 16.36V14.925H6.35496V16.36C6.35469 16.5408 6.28276 16.7141 6.15491 16.842C6.02707 16.9698 5.85376 17.0418 5.67296 17.042H2.75496C2.57416 17.0418 2.40085 16.9698 2.273 16.842C2.14516 16.7141 2.07322 16.5408 2.07296 16.36C2.07296 14.03 2.07296 11.724 2.04896 9.39502C2.14296 9.13602 2.23696 8.90102 2.30796 8.64202H1.17796C0.283959 8.35902 1.29096 6.85002 1.86096 6.47702H2.56696C3.17896 4.87702 3.69596 3.23002 4.30796 1.63002C4.89199 1.12119 5.58412 0.751868 6.33196 0.550021C9.30758 -0.179353 12.4153 -0.179353 15.391 0.550021ZM17.603 6.48002C17.179 5.20902 16.732 4.08002 16.309 2.76202C15.898 2.3173 15.3524 2.01975 14.756 1.91502C12.1917 1.3382 9.53126 1.3382 6.96696 1.91502C6.36416 2.01847 5.81116 2.31461 5.39096 2.75902C4.99096 4.07702 4.54396 5.20602 4.09696 6.47702C8.56342 7.27707 13.1365 7.27707 17.603 6.47702V6.48002ZM3.57796 11.065V9.84202C3.63146 9.61922 3.76312 9.42302 3.94901 9.28906C4.1349 9.1551 4.36268 9.09228 4.59096 9.11202C5.83796 9.58302 7.10896 10.077 8.37996 10.547C8.61496 10.994 8.33296 11.371 7.93296 11.724H4.23696C4.08053 11.6785 3.93813 11.5942 3.82293 11.479C3.70774 11.3639 3.62348 11.2214 3.57796 11.065ZM18.144 11.065C18.144 10.665 18.144 10.241 18.12 9.84102C18.0717 9.62033 17.9449 9.42469 17.7632 9.29057C17.5814 9.15644 17.3571 9.09299 17.132 9.11202C15.861 9.58302 14.614 10.077 13.343 10.547C13.084 10.994 13.39 11.371 13.79 11.724H17.484C17.6406 11.6787 17.7832 11.5945 17.8986 11.4793C18.0139 11.364 18.0984 11.2216 18.144 11.065Z" fill="#006FFF"/>
</svg>
