<svg width="12" height="15" viewBox="0 0 12 15" fill="none" xmlns="http://www.w3.org/2000/svg">
<path d="M5.82602 0.614991C5.10587 0.614597 4.39271 0.756149 3.7273 1.03156C3.06189 1.30696 2.4573 1.71082 1.94807 2.22004C1.43885 2.72927 1.03499 3.33387 0.759583 3.99927C0.484176 4.66468 0.342624 5.37784 0.343018 6.09799C0.343018 8.34499 3.35202 11.962 4.91902 14.188C5.02007 14.3353 5.15546 14.4557 5.31348 14.5389C5.47151 14.6221 5.64742 14.6656 5.82602 14.6656C6.00462 14.6656 6.18053 14.6221 6.33856 14.5389C6.49658 14.4557 6.63197 14.3353 6.73302 14.188C8.30002 11.962 11.309 8.34499 11.309 6.09799C11.3094 5.37784 11.1679 4.66468 10.8925 3.99927C10.617 3.33387 10.2132 2.72927 9.70396 2.22004C9.19474 1.71082 8.59015 1.30696 7.92474 1.03156C7.25933 0.756149 6.54617 0.614597 5.82602 0.614991ZM5.82602 7.84999C5.41707 7.84801 5.01786 7.72506 4.67866 7.49663C4.33946 7.2682 4.07544 6.9445 3.91985 6.5663C3.76427 6.18811 3.72408 5.77233 3.80435 5.37133C3.88461 4.97034 4.08175 4.60206 4.37092 4.31289C4.66009 4.02372 5.02836 3.82658 5.42936 3.74632C5.83035 3.66605 6.24613 3.70624 6.62433 3.86182C7.00253 4.01741 7.32623 4.28143 7.55466 4.62063C7.78309 4.95983 7.90604 5.35905 7.90802 5.76799C7.90881 6.04163 7.8555 6.31272 7.75115 6.56567C7.6468 6.81863 7.49347 7.04846 7.29998 7.24195C7.10649 7.43544 6.87666 7.58877 6.6237 7.69312C6.37074 7.79747 6.09965 7.85078 5.82602 7.84999Z" fill="#006FFF"/>
</svg>
