<svg width="19" height="17" viewBox="0 0 19 17" fill="none" xmlns="http://www.w3.org/2000/svg">
<path d="M7.08997 3.60602C7.08997 3.17684 7.21723 2.75729 7.45568 2.40044C7.69412 2.04358 8.03303 1.76545 8.42954 1.60121C8.82606 1.43696 9.26237 1.39399 9.68331 1.47772C10.1042 1.56145 10.4909 1.76812 10.7944 2.0716C11.0979 2.37508 11.3045 2.76174 11.3883 3.18268C11.472 3.60362 11.429 4.03993 11.2648 4.43645C11.1005 4.83296 10.8224 5.17187 10.4656 5.41031C10.1087 5.64876 9.68915 5.77602 9.25997 5.77602C8.68509 5.77392 8.13437 5.54462 7.72787 5.13812C7.32137 4.73162 7.09207 4.18089 7.08997 3.60602ZM3.45297 4.33902C3.88215 4.33902 4.3017 4.21176 4.65855 3.97331C5.01541 3.73487 5.29354 3.39596 5.45778 2.99945C5.62203 2.60293 5.665 2.16662 5.58127 1.74568C5.49754 1.32474 5.29087 0.938082 4.98739 0.634602C4.68391 0.331122 4.29725 0.12445 3.87631 0.0407203C3.45537 -0.0430096 3.01906 -3.62694e-05 2.62254 0.164206C2.22603 0.328448 1.88712 0.606582 1.64868 0.963436C1.41023 1.32029 1.28297 1.73984 1.28297 2.16902C1.28481 2.7439 1.51386 3.29473 1.92017 3.70141C2.32648 4.1081 2.8771 4.33765 3.45197 4.34002L3.45297 4.33902ZM6.56997 5.98902C6.43451 5.78779 6.25295 5.62182 6.0404 5.50494C5.82785 5.38805 5.59045 5.32363 5.34797 5.31702H1.58997C1.19214 5.31702 0.810611 5.47506 0.529306 5.75636C0.248002 6.03767 0.0899658 6.4192 0.0899658 6.81702V10.917C0.0930054 11.0375 0.142234 11.1523 0.227476 11.2375C0.312718 11.3228 0.427454 11.372 0.547966 11.375H1.37297V14.15C1.37601 14.2705 1.42524 14.3853 1.51048 14.4705C1.59572 14.5558 1.71045 14.605 1.83097 14.608H5.07097C5.19148 14.605 5.30621 14.5558 5.39145 14.4705C5.4767 14.3853 5.52593 14.2705 5.52896 14.15V13.45C5.35649 13.3236 5.21664 13.1578 5.12099 12.9665C5.02534 12.7752 4.97666 12.5639 4.97897 12.35V8.22102C4.98216 7.73072 5.13657 7.25335 5.42113 6.85407C5.7057 6.45478 6.10655 6.15304 6.56897 5.99003L6.56997 5.98902ZM15.07 4.33902C15.4992 4.33902 15.9187 4.21176 16.2756 3.97331C16.6324 3.73487 16.9105 3.39596 17.0748 2.99945C17.239 2.60293 17.282 2.16662 17.1983 1.74568C17.1145 1.32474 16.9079 0.938082 16.6044 0.634602C16.3009 0.331122 15.9143 0.12445 15.4933 0.0407203C15.0724 -0.0430096 14.6361 -3.62694e-05 14.2395 0.164206C13.843 0.328448 13.5041 0.606582 13.2657 0.963436C13.0272 1.32029 12.9 1.73984 12.9 2.16902C12.9018 2.74321 13.1303 3.29344 13.5357 3.70001C13.9412 4.10658 14.4908 4.3366 15.065 4.34002L15.07 4.33902ZM16.934 5.31702H13.201C12.957 5.31627 12.7169 5.37755 12.5031 5.4951C12.2894 5.61265 12.109 5.78261 11.979 5.98902C12.4429 6.15896 12.8438 6.46674 13.1279 6.87107C13.4119 7.27539 13.5655 7.75691 13.568 8.25102V12.351C13.5703 12.5649 13.5216 12.7762 13.4259 12.9675C13.3303 13.1588 13.1904 13.3246 13.018 13.451V14.151C13.021 14.2715 13.0702 14.3863 13.1555 14.4715C13.2407 14.5568 13.3555 14.606 13.476 14.609H16.716C16.8365 14.606 16.9512 14.5568 17.0365 14.4715C17.1217 14.3863 17.1709 14.2715 17.174 14.151V11.369H17.999C18.1195 11.366 18.2342 11.3168 18.3195 11.2315C18.4047 11.1463 18.4539 11.0315 18.457 10.911V6.78502C18.4378 6.39178 18.269 6.02075 17.9851 5.74798C17.7012 5.47522 17.3237 5.32139 16.93 5.31802L16.934 5.31702ZM11.127 6.75302H7.38997C6.99214 6.75302 6.61061 6.91106 6.32931 7.19236C6.048 7.47367 5.88997 7.8552 5.88997 8.25303V12.353C5.893 12.4735 5.94223 12.5883 6.02748 12.6735C6.11272 12.7588 6.22745 12.808 6.34797 12.811H7.17297V15.592C7.17601 15.7125 7.22523 15.8273 7.31048 15.9125C7.39572 15.9978 7.51045 16.047 7.63097 16.05H10.871C10.9915 16.047 11.1062 15.9978 11.1915 15.9125C11.2767 15.8273 11.3259 15.7125 11.329 15.592V12.805H12.154C12.2745 12.802 12.3892 12.7528 12.4745 12.6675C12.5597 12.5823 12.6089 12.4675 12.612 12.347V8.22102C12.6049 7.83035 12.4451 7.45799 12.1667 7.18377C11.8884 6.90954 11.5137 6.75527 11.123 6.75402L11.127 6.75302Z" fill="#006FFF"/>
</svg>
