<svg width="188" height="36" viewBox="0 0 188 36" fill="none" xmlns="http://www.w3.org/2000/svg">
<path d="M35.761 0.239014H0V36H35.761V0.239014Z" fill="#006FFF"/>
<path d="M188 0.239014H35.761V36H188V0.239014Z" fill="#181918"/>
<path d="M48.34 28H50.524V20.798H53.592L57.7 28H60.17L55.828 20.564C58.142 19.966 59.65 18.406 59.65 15.754C59.65 12.192 57.154 10.944 53.67 10.944H48.34V28ZM50.524 19.03V12.712H53.358C56.01 12.712 57.466 13.518 57.466 15.754C57.466 17.938 56.01 19.03 53.358 19.03H50.524ZM63.1681 28H73.2561V26.154H65.3521V19.966H71.8001V18.12H65.3521V12.79H72.9961V10.944H63.1681V28ZM76.8791 28H78.9331V19.03C78.9331 17.262 78.7771 15.416 78.6471 13.7H78.7511C79.3231 14.948 79.9471 16.222 80.5971 17.366L86.6811 28H89.0211V10.944H86.9671V19.836C86.9671 21.604 87.1231 23.476 87.2531 25.244H87.1491C86.5511 23.996 85.9531 22.722 85.3031 21.578L79.2191 10.944H76.8791V28ZM97.2237 28H99.4077V12.79H104.582V10.944H92.0757V12.79H97.2237V28ZM113.44 28.312C115.624 28.312 117.288 27.428 118.666 25.842L117.47 24.542C116.378 25.738 115.156 26.388 113.518 26.388C110.294 26.388 108.266 23.71 108.266 19.42C108.266 15.182 110.398 12.556 113.596 12.556C115.052 12.556 116.17 13.154 117.08 14.09L118.276 12.738C117.262 11.62 115.65 10.632 113.57 10.632C109.228 10.632 106.004 13.986 106.004 19.472C106.004 25.036 109.176 28.312 113.44 28.312ZM124.81 18.484C125.408 16.586 125.954 14.714 126.474 12.738H126.578C127.124 14.714 127.67 16.586 128.294 18.484L129.1 21.058H124.004L124.81 18.484ZM119.584 28H121.794L123.432 22.826H129.646L131.258 28H133.572L127.826 10.944H125.33L119.584 28ZM135.988 28H138.172V20.798H141.24L145.348 28H147.818L143.476 20.564C145.79 19.966 147.298 18.406 147.298 15.754C147.298 12.192 144.802 10.944 141.318 10.944H135.988V28ZM138.172 19.03V12.712H141.006C143.658 12.712 145.114 13.518 145.114 15.754C145.114 17.938 143.658 19.03 141.006 19.03H138.172Z" fill="white"/>
<path d="M27.3819 15.2C27.3798 14.8759 27.2499 14.5657 27.0203 14.3369C26.7907 14.108 26.4801 13.9791 26.1559 13.978H24.8559L23.7829 11.067C23.5789 10.597 23.2029 10.2228 22.7319 10.021C20.9819 9.57036 19.1738 9.38728 17.3689 9.47803C15.5647 9.38557 13.7568 9.56696 12.0069 10.016C11.5357 10.218 11.1597 10.5926 10.9559 11.063L9.88293 13.978H8.58293C8.42193 13.978 8.26251 14.0097 8.11376 14.0714C7.96502 14.133 7.82987 14.2233 7.71602 14.3371C7.60218 14.451 7.51187 14.5861 7.45026 14.7349C7.38865 14.8836 7.35693 15.043 7.35693 15.204C7.35693 15.365 7.38865 15.5245 7.45026 15.6732C7.51187 15.8219 7.60218 15.9571 7.71602 16.0709C7.82987 16.1848 7.96502 16.2751 8.11376 16.3367C8.26251 16.3983 8.42193 16.43 8.58293 16.43H8.98293L8.66293 17.298C8.49108 17.8079 8.39505 18.3403 8.37793 18.878V24.191C8.37793 24.6247 8.55019 25.0405 8.85681 25.3472C9.16344 25.6538 9.5793 25.826 10.0129 25.826C10.4466 25.826 10.8624 25.6538 11.1691 25.3472C11.4757 25.0405 11.6479 24.6247 11.6479 24.191V23.378H23.0909V24.195C23.0909 24.6287 23.2632 25.0445 23.5698 25.3512C23.8764 25.6578 24.2923 25.83 24.7259 25.83C25.1596 25.83 25.5754 25.6578 25.8821 25.3512C26.1887 25.0445 26.3609 24.6287 26.3609 24.195V18.878C26.3448 18.339 26.2494 17.8053 26.0779 17.294L25.7579 16.426H26.1579C26.4824 16.4245 26.7931 16.2947 27.0224 16.0651C27.2517 15.8354 27.3809 15.5245 27.3819 15.2V15.2ZM12.6689 11.521H22.0689L23.2949 15.199H11.4429L12.6689 11.521ZM11.2389 20.104C10.9965 20.104 10.7594 20.0321 10.5578 19.8974C10.3562 19.7627 10.1991 19.5712 10.1063 19.3472C10.0135 19.1232 9.98919 18.8767 10.0365 18.6389C10.0838 18.401 10.2006 18.1826 10.372 18.0111C10.5435 17.8397 10.7619 17.7229 10.9998 17.6756C11.2376 17.6283 11.4841 17.6526 11.7081 17.7454C11.9321 17.8382 12.1236 17.9953 12.2583 18.1969C12.393 18.3985 12.4649 18.6356 12.4649 18.878C12.4649 19.039 12.4332 19.1985 12.3716 19.3472C12.31 19.4959 12.2197 19.6311 12.1058 19.7449C11.992 19.8588 11.8568 19.9491 11.7081 20.0107C11.5594 20.0723 11.3999 20.104 11.2389 20.104V20.104ZM23.4999 20.104C23.2575 20.104 23.0204 20.0321 22.8188 19.8974C22.6172 19.7627 22.4601 19.5712 22.3673 19.3472C22.2745 19.1232 22.2502 18.8767 22.2975 18.6389C22.3448 18.401 22.4616 18.1826 22.633 18.0111C22.8045 17.8397 23.0229 17.7229 23.2608 17.6756C23.4986 17.6283 23.7451 17.6526 23.9691 17.7454C24.1931 17.8382 24.3846 17.9953 24.5193 18.1969C24.654 18.3985 24.7259 18.6356 24.7259 18.878C24.7259 19.0391 24.6942 19.1986 24.6325 19.3474C24.5708 19.4962 24.4804 19.6314 24.3665 19.7453C24.2525 19.8592 24.1173 19.9494 23.9684 20.011C23.8195 20.0726 23.66 20.1042 23.4989 20.104H23.4999Z" fill="white"/>
</svg>
