<svg width="12" height="13" viewBox="0 0 12 13" fill="none" xmlns="http://www.w3.org/2000/svg">
<path d="M10.15 2.05201H8.71301V1.33401C8.71662 1.2374 8.7007 1.14105 8.66622 1.05073C8.63173 0.960414 8.57939 0.877979 8.51231 0.808355C8.44524 0.738731 8.36481 0.683349 8.27584 0.645521C8.18687 0.607693 8.09119 0.588196 7.99451 0.588196C7.89784 0.588196 7.80215 0.607693 7.71318 0.645521C7.62421 0.683349 7.54379 0.738731 7.47671 0.808355C7.40964 0.877979 7.35729 0.960414 7.32281 1.05073C7.28832 1.14105 7.27241 1.2374 7.27601 1.33401V2.05301H4.40001V1.33401C4.40362 1.2374 4.3877 1.14105 4.35322 1.05073C4.31873 0.960414 4.26639 0.877979 4.19931 0.808355C4.13224 0.738731 4.05181 0.683349 3.96284 0.645521C3.87387 0.607693 3.77819 0.588196 3.68151 0.588196C3.58484 0.588196 3.48915 0.607693 3.40018 0.645521C3.31121 0.683349 3.23079 0.738731 3.16371 0.808355C3.09664 0.877979 3.04429 0.960414 3.00981 1.05073C2.97532 1.14105 2.95941 1.2374 2.96301 1.33401V2.05301H1.52501C1.14398 2.05327 0.778625 2.20475 0.509193 2.47419C0.23976 2.74362 0.0882776 3.10897 0.0880127 3.49001V10.678C0.0882776 11.059 0.23976 11.4244 0.509193 11.6938C0.778625 11.9633 1.14398 12.1147 1.52501 12.115H10.15C10.531 12.1147 10.8964 11.9633 11.1658 11.6938C11.4353 11.4244 11.5867 11.059 11.587 10.678V3.49001C11.587 3.1088 11.4356 2.74319 11.1662 2.47354C10.8967 2.20389 10.5312 2.05227 10.15 2.05201ZM10.15 10.677H1.52501V4.56801H10.15V10.677Z" fill="#006FFF"/>
</svg>
